# xmcd
#
# Track frame offsets:
# 150
# 19999
# 42012
# 59221
# 81825
# 99054
# 124858
# 144447
# 168992
# 188706
# 202430
# 225515
# 246748
# 266722
# 283378
# 305850
# 327426
#
# Disc length: 4583 seconds
#
# Revision: 0
# Processed by: cddbd v1.4PL0 Copyright (c) Steve Scherf et al.
# Submitted via: Audion 2.6.0 (http://www.panic.com/audion/)
#
DISCID=0b11e511
DTITLE=Various Artist - Candle Lighting
DYEAR=1900
DGENRE=
TTITLE0=Candle Lighting
TTITLE1=Candle Lighting
TTITLE2=Candle Lighting
TTITLE3=Candle Lighting
TTITLE4=Candle Lighting
TTITLE5=Candle Lighting
TTITLE6=Candle Lighting
TTITLE7=Candle Lighting
TTITLE8=Candle Lighting
TTITLE9=Candle Lighting
TTITLE10=Candle Lighting
TTITLE11=Candle Lighting
TTITLE12=Candle Lighting
TTITLE13=Candle Lighting
TTITLE14=Candle Lighting
TTITLE15=Candle Lighting
TTITLE16=Candle Lighting
EXTD=
EXTT0=
EXTT1=
EXTT2=
EXTT3=
EXTT4=
EXTT5=
EXTT6=
EXTT7=
EXTT8=
EXTT9=
EXTT10=
EXTT11=
EXTT12=
EXTT13=
EXTT14=
EXTT15=
EXTT16=
PLAYORDER=
